<svg id="Layer_1" data-name="Layer 1" xmlns="http://www.w3.org/2000/svg" xmlns:xlink="http://www.w3.org/1999/xlink" viewBox="0 0 512 512"><defs><style>.cls-1{fill:#bbdfff;}.cls-2{fill:#fff;}.cls-3{fill:url(#linear-gradient);}</style><linearGradient id="linear-gradient" x1="44.7" y1="256.08" x2="552.52" y2="256.08" gradientUnits="userSpaceOnUse"><stop offset="0" stop-color="#fff"/><stop offset="1" stop-color="#a5d5ff"/></linearGradient></defs><path class="cls-1" d="M327.74,89.85a91.12,91.12,0,0,1,7.65-36.56H168.06A111.79,111.79,0,0,0,56.26,165.08v109.6a111.79,111.79,0,0,0,111.8,111.79h33.16l72.86,72.24V386.47h69.73A111.79,111.79,0,0,0,455.6,274.68V173.82a91.49,91.49,0,0,1-127.86-84ZM156.15,313.55A26.81,26.81,0,1,1,183,286.74,26.82,26.82,0,0,1,156.15,313.55Zm99.78,0a26.81,26.81,0,1,1,26.81-26.81A26.81,26.81,0,0,1,255.93,313.55Zm99.78,0a26.81,26.81,0,1,1,26.81-26.81A26.84,26.84,0,0,1,355.71,313.55Z"/><circle class="cls-2" cx="419.25" cy="89.85" r="36.48"/><path class="cls-3" d="M328.9,286.74a26.76,26.76,0,0,1,13.56-23.29c-17.92-98.08-87.91-178-180.26-210A111.8,111.8,0,0,0,56.26,165.08v109.2A111.79,111.79,0,0,0,168.05,386.07h33.27l72.76,72.64V386.07h63.06a274.87,274.87,0,0,0,9.8-72.92c0-.37,0-.73,0-1.1A26.81,26.81,0,0,1,328.9,286.74ZM156.15,313.55A26.81,26.81,0,1,1,183,286.74,26.82,26.82,0,0,1,156.15,313.55Zm99.78,0a26.81,26.81,0,1,1,26.81-26.81A26.81,26.81,0,0,1,255.93,313.55Z"/></svg>